<svg id="wave" style="transform:rotate(0deg); transition: 0.3s" viewBox="0 0 1440 490" version="1.1" xmlns="http://www.w3.org/2000/svg"><defs><linearGradient id="sw-gradient-0" x1="0" x2="0" y1="1" y2="0"><stop stop-color="rgba(62, 243, 130, 1)" offset="0%"></stop><stop stop-color="rgba(81, 65, 234, 1)" offset="100%"></stop></linearGradient></defs><path style="transform:translate(0, 0px); opacity:1" fill="url(#sw-gradient-0)" d="M0,147L80,147C160,147,320,147,480,171.5C640,196,800,245,960,236.8C1120,229,1280,163,1440,147C1600,131,1760,163,1920,212.3C2080,261,2240,327,2400,359.3C2560,392,2720,392,2880,383.8C3040,376,3200,359,3360,334.8C3520,310,3680,278,3840,228.7C4000,180,4160,114,4320,81.7C4480,49,4640,49,4800,106.2C4960,163,5120,278,5280,277.7C5440,278,5600,163,5760,114.3C5920,65,6080,82,6240,122.5C6400,163,6560,229,6720,277.7C6880,327,7040,359,7200,334.8C7360,310,7520,229,7680,187.8C7840,147,8000,147,8160,187.8C8320,229,8480,310,8640,351.2C8800,392,8960,392,9120,367.5C9280,343,9440,294,9600,269.5C9760,245,9920,245,10080,204.2C10240,163,10400,82,10560,73.5C10720,65,10880,131,11040,196C11200,261,11360,327,11440,359.3L11520,392L11520,490L11440,490C11360,490,11200,490,11040,490C10880,490,10720,490,10560,490C10400,490,10240,490,10080,490C9920,490,9760,490,9600,490C9440,490,9280,490,9120,490C8960,490,8800,490,8640,490C8480,490,8320,490,8160,490C8000,490,7840,490,7680,490C7520,490,7360,490,7200,490C7040,490,6880,490,6720,490C6560,490,6400,490,6240,490C6080,490,5920,490,5760,490C5600,490,5440,490,5280,490C5120,490,4960,490,4800,490C4640,490,4480,490,4320,490C4160,490,4000,490,3840,490C3680,490,3520,490,3360,490C3200,490,3040,490,2880,490C2720,490,2560,490,2400,490C2240,490,2080,490,1920,490C1760,490,1600,490,1440,490C1280,490,1120,490,960,490C800,490,640,490,480,490C320,490,160,490,80,490L0,490Z"></path></svg>